# xmcd
#
# Track frame offsets:
#	150
#	22595
#	40572
#	57977
#	70862
#	85605
#	101112
#	119577
#	137230
#	153450
#
# Disc length: 2273
#
# Revision: 3
# Processed by: cddbd v1.5.1PL0 Copyright (c) Steve Scherf et al.
# Submitted via: DiscPlay 4.0.3
# Normalized: r1:TSWAP
#
DISCID=7b08df0a
DTITLE=Various Artist - BMG #50 - BMG Country radio Compilation #50
DYEAR=1900
DGENRE=
TTITLE0=Prairie Oyster - Tonight There's  A Blue Moon
TTITLE1=clint black - something that we do
TTITLE2=lonestar - you walked in
TTITLE3=lorrie morgan - go away
TTITLE4=Brooks and Dunn - Honky tonk truth
TTITLE5=pam tillis - land of the living
TTITLE6=Alabama - dancin' Shaggin' On the Boulevard
TTITLE7=Alan Jackson - There Goes
TTITLE8=the Thompson brothers band - Drive me Crazy
TTITLE9=Lee Roy Parnell - You Can't Get There From Here
EXTD=
EXTT0=
EXTT1=
EXTT2=
EXTT3=
EXTT4=
EXTT5=
EXTT6=
EXTT7=
EXTT8=
EXTT9=
PLAYORDER=
